<svg xmlns="http://www.w3.org/2000/svg" width="720" height="250" viewBox="0 0 720 250">
<g>
<path d="M 477.31 195.25 C471.32,198.06 469.30,198.48 460.50,198.76 C451.81,199.02 449.77,198.76 444.89,196.70 C438.34,193.94 434.80,191.53 430.05,186.59 C428.16,184.61 426.27,183.00 425.85,183.00 C425.43,183.00 424.96,186.04 424.80,189.75 L 424.50 196.50 L 417.24 196.79 L 409.99 197.09 L 410.24 131.79 L 410.50 66.50 L 424.50 66.50 L 424.77 91.75 C424.98,111.46 425.32,117.00 426.31,117.00 C427.02,117.00 429.37,115.16 431.55,112.91 C439.93,104.24 454.16,99.74 466.63,101.80 C492.13,106.03 508.85,130.27 505.06,157.51 C502.81,173.72 492.08,188.31 477.31,195.25 ZM 358.92 194.57 C354.24,196.96 352.07,197.38 343.00,197.71 C333.63,198.04 331.88,197.82 326.74,195.65 C323.57,194.31 319.78,192.43 318.32,191.48 C309.92,185.97 300.72,174.03 299.36,166.87 C299.01,165.01 298.24,162.89 297.65,162.15 C297.06,161.40 296.40,156.60 296.18,151.48 C295.86,144.29 296.14,141.43 297.38,138.93 C298.27,137.15 299.00,134.76 299.00,133.61 C299.00,130.17 304.19,120.97 309.28,115.39 C320.45,103.16 339.21,97.90 354.99,102.59 C361.76,104.60 364.24,106.14 370.71,112.35 C376.13,117.55 377.40,117.46 376.90,111.88 C376.79,110.57 376.76,108.04 376.84,106.25 L 377.00 103.00 L 392.02 103.00 L 391.76 149.25 L 391.50 195.50 L 377.00 196.09 L 376.98 190.29 C376.96,181.18 376.04,180.73 369.73,186.69 C366.76,189.50 361.90,193.04 358.92,194.57 ZM 448.62 182.43 C463.17,187.09 480.74,179.49 487.72,165.54 C491.19,158.59 491.43,143.96 488.20,136.74 C484.63,128.78 479.72,123.73 472.00,120.09 C467.28,117.87 465.15,117.50 457.00,117.50 C448.62,117.51 446.90,117.83 442.37,120.21 C431.24,126.07 425.78,135.12 425.17,148.73 C424.83,156.18 425.08,157.56 427.74,163.23 C432.74,173.88 438.52,179.19 448.62,182.43 ZM 333.27 181.11 C337.14,182.55 340.33,182.96 345.55,182.69 C366.76,181.60 380.31,163.48 376.06,141.88 C372.82,125.41 356.78,114.37 339.04,116.41 C327.67,117.72 319.25,123.97 314.10,134.95 C311.89,139.67 311.51,141.84 311.54,149.50 C311.58,157.24 311.96,159.22 314.24,163.61 C319.17,173.10 324.22,177.74 333.27,181.11 ZM 673.21 195.24 C667.36,197.92 665.15,198.36 656.00,198.69 C647.72,198.98 644.44,198.68 640.49,197.26 C628.59,193.00 618.50,184.41 613.59,174.37 C612.01,171.14 610.33,167.71 609.85,166.75 C607.82,162.66 606.87,149.94 608.03,142.29 C608.67,138.10 609.53,133.96 609.95,133.09 C616.77,118.97 622.98,111.51 632.00,106.59 C646.63,98.63 667.86,99.24 680.42,107.97 C686.22,112.01 695.00,121.71 695.00,124.08 C695.00,124.43 692.23,126.42 688.85,128.51 C682.95,132.16 682.65,132.23 681.39,130.40 C678.85,126.72 673.46,121.86 669.50,119.69 C666.07,117.81 663.94,117.50 654.50,117.50 C644.34,117.50 643.15,117.71 638.89,120.21 C630.38,125.22 625.08,133.02 622.99,143.63 C620.11,158.28 627.94,173.73 641.50,180.16 C646.55,182.55 648.77,183.00 655.50,182.99 C665.68,182.98 672.47,180.06 679.17,172.81 L 683.84 167.76 L 689.42 170.95 C692.49,172.71 695.00,174.71 695.00,175.41 C695.00,177.32 688.50,185.26 683.95,188.92 C681.73,190.71 676.89,193.55 673.21,195.24 ZM 267.02 119.00 L 266.50 196.50 L 259.46 196.79 C255.58,196.95 252.09,196.76 251.71,196.37 C251.32,195.98 251.00,178.42 251.00,157.33 L 251.00 119.00 L 237.00 119.00 L 237.00 102.88 L 243.72 103.19 L 250.44 103.50 L 251.47 96.81 C252.04,93.14 252.84,89.80 253.25,89.40 C253.66,89.00 254.00,87.48 254.00,86.03 C254.00,82.70 258.56,75.45 263.24,71.35 C268.01,67.18 276.36,64.16 284.16,63.80 L 290.50 63.50 L 290.79 71.11 L 291.08 78.72 L 284.74 79.23 C272.71,80.19 267.70,85.35 267.57,96.91 L 267.50 103.50 L 291.00 103.00 L 291.00 119.00 ZM 534.01 167.00 L 533.50 196.50 L 526.74 196.80 C521.90,197.01 519.83,196.72 519.48,195.80 C519.20,195.08 519.10,174.02 519.24,149.00 L 519.50 103.50 L 526.70 103.21 L 533.91 102.91 L 534.20 109.71 L 534.50 116.50 L 540.16 111.19 C546.22,105.51 553.62,102.00 559.55,102.00 L 563.08 102.00 L 562.50 117.42 L 557.00 118.56 C548.90,120.22 544.87,122.25 541.11,126.53 C534.70,133.83 534.57,134.55 534.01,167.00 ZM 591.50 103.50 L 592.02 197.00 L 585.68 197.00 C582.19,197.00 579.03,196.70 578.67,196.33 C578.30,195.97 578.00,175.05 578.00,149.85 L 578.00 104.04 L 580.33 103.45 C581.61,103.13 584.65,103.01 587.08,103.18 ZM 54.50 147.10 C49.46,149.44 45.58,149.45 40.49,147.13 C29.47,142.13 26.28,126.03 34.61,117.45 C42.61,109.21 53.90,108.88 61.13,116.67 C65.02,120.86 66.00,123.32 66.00,128.87 C66.00,137.60 62.28,143.50 54.50,147.10 ZM 55.94 213.16 C46.35,217.79 37.87,215.00 31.82,205.22 C28.67,200.11 29.54,190.39 33.62,185.29 C38.09,179.69 42.30,177.82 49.53,178.23 C60.53,178.85 66.66,186.25 65.81,197.92 C65.31,204.90 61.79,210.33 55.94,213.16 ZM 120.51 147.14 C112.76,150.66 104.76,148.48 99.34,141.38 C97.18,138.55 96.49,136.41 96.18,131.54 C95.57,121.87 99.44,115.91 108.60,112.41 C122.00,107.29 134.43,119.23 131.57,134.46 C130.72,139.01 125.68,144.79 120.51,147.14 ZM 186.80 80.59 C183.72,82.20 176.70,82.35 173.00,80.88 C169.54,79.51 164.00,73.97 164.00,71.89 C164.00,70.94 163.54,70.01 162.98,69.83 C161.11,69.20 160.70,62.45 162.31,58.88 C163.15,57.02 164.12,54.52 164.47,53.31 C164.81,52.11 167.18,49.75 169.72,48.06 C175.64,44.14 183.38,43.83 189.42,47.27 C196.43,51.25 199.94,61.72 196.94,69.68 C195.65,73.10 190.49,78.65 186.80,80.59 ZM 58.37 78.53 C55.48,80.74 53.32,81.47 49.05,81.71 C42.13,82.10 37.24,79.68 32.89,73.72 C30.07,69.84 29.85,68.97 30.19,62.89 C30.59,55.54 33.42,50.59 39.37,46.86 C43.82,44.07 54.22,44.60 58.80,47.85 C68.61,54.84 68.39,70.89 58.37,78.53 ZM 120.28 80.62 C114.54,83.08 108.69,82.41 103.93,78.75 C101.61,76.96 98.87,73.93 97.85,72.02 C95.85,68.24 95.29,58.56 97.02,57.49 C97.58,57.14 97.82,56.52 97.56,56.10 C96.74,54.76 103.24,47.80 106.64,46.38 C115.07,42.85 125.50,46.09 129.71,53.52 C132.19,57.89 132.72,64.96 130.94,69.68 C129.50,73.50 124.20,78.94 120.28,80.62 ZM 185.21 203.10 C181.06,206.81 177.65,206.80 173.92,203.08 C169.19,198.34 170.15,191.53 175.98,188.51 C180.06,186.40 182.45,186.62 185.67,189.39 C187.90,191.31 188.45,192.63 188.45,196.00 C188.45,199.48 187.90,200.70 185.21,203.10 ZM 119.60 202.60 C115.31,206.89 111.88,207.03 107.92,203.08 C103.42,198.58 104.37,191.99 109.99,188.67 C114.05,186.26 116.76,186.60 120.08,189.92 C124.19,194.03 124.03,198.17 119.60,202.60 ZM 590.89 82.10 C587.06,85.68 583.10,85.85 579.33,82.61 C573.18,77.31 577.20,66.94 585.50,66.70 C593.53,66.48 597.00,76.39 590.89,82.10 ZM 184.06 137.97 C180.55,139.85 176.53,139.16 173.69,136.20 C170.18,132.54 170.15,128.17 173.59,124.08 C178.33,118.45 186.88,120.63 188.47,127.88 C189.23,131.32 187.01,136.39 184.06,137.97 Z" fill="rgb(1,1,1)"/>
<path d="M 0.00 125.00 L 0.00 0.00 L 360.00 0.00 L 720.00 0.00 L 720.00 125.00 L 720.00 250.00 L 360.00 250.00 L 0.00 250.00 L 0.00 125.00 ZM 55.94 213.16 C61.79,210.33 65.31,204.90 65.81,197.92 C66.66,186.25 60.53,178.85 49.53,178.23 C42.30,177.82 38.09,179.69 33.62,185.29 C29.54,190.39 28.67,200.11 31.82,205.22 C37.87,215.00 46.35,217.79 55.94,213.16 ZM 119.60 202.60 C124.03,198.17 124.19,194.03 120.08,189.92 C116.76,186.60 114.05,186.26 109.99,188.67 C104.37,191.99 103.42,198.58 107.92,203.08 C111.88,207.03 115.31,206.89 119.60,202.60 ZM 185.21 203.10 C187.90,200.70 188.45,199.48 188.45,196.00 C188.45,192.63 187.90,191.31 185.67,189.39 C182.45,186.62 180.06,186.40 175.98,188.51 C170.15,191.53 169.19,198.34 173.92,203.08 C177.65,206.80 181.06,206.81 185.21,203.10 ZM 477.31 195.25 C492.08,188.31 502.81,173.72 505.06,157.51 C508.85,130.27 492.13,106.03 466.63,101.80 C454.16,99.74 439.93,104.24 431.55,112.91 C429.37,115.16 427.02,117.00 426.31,117.00 C425.32,117.00 424.98,111.46 424.77,91.75 L 424.50 66.50 L 417.50 66.50 L 410.50 66.50 L 410.24 131.79 L 409.99 197.09 L 417.24 196.79 L 424.50 196.50 L 424.80 189.75 C424.96,186.04 425.43,183.00 425.85,183.00 C426.27,183.00 428.16,184.61 430.05,186.59 C434.80,191.53 438.34,193.94 444.89,196.70 C449.77,198.76 451.81,199.02 460.50,198.76 C469.30,198.48 471.32,198.06 477.31,195.25 ZM 673.21 195.24 C676.89,193.55 681.73,190.71 683.95,188.92 C688.50,185.26 695.00,177.32 695.00,175.41 C695.00,174.71 692.49,172.71 689.42,170.95 L 683.84 167.76 L 679.17 172.81 C672.47,180.06 665.68,182.98 655.50,182.99 C648.77,183.00 646.55,182.55 641.50,180.16 C627.94,173.73 620.11,158.28 622.99,143.63 C625.08,133.02 630.38,125.22 638.89,120.21 C643.15,117.71 644.34,117.50 654.50,117.50 C663.94,117.50 666.07,117.81 669.50,119.69 C673.46,121.86 678.85,126.72 681.39,130.40 C682.65,132.23 682.95,132.16 688.85,128.51 C692.23,126.42 695.00,124.43 695.00,124.08 C695.00,121.71 686.22,112.01 680.42,107.97 C667.86,99.24 646.63,98.63 632.00,106.59 C622.98,111.51 616.77,118.97 609.95,133.09 C609.53,133.96 608.67,138.10 608.03,142.29 C606.87,149.94 607.82,162.66 609.85,166.75 C610.33,167.71 612.01,171.14 613.59,174.37 C618.50,184.41 628.59,193.00 640.49,197.26 C644.44,198.68 647.72,198.98 656.00,198.69 C665.15,198.36 667.36,197.92 673.21,195.24 ZM 358.92 194.57 C361.90,193.04 366.76,189.50 369.73,186.69 C376.04,180.73 376.96,181.18 376.98,190.29 L 377.00 196.09 L 384.25 195.79 L 391.50 195.50 L 391.76 149.25 L 392.02 103.00 L 384.51 103.00 L 377.00 103.00 L 376.84 106.25 C376.76,108.04 376.79,110.57 376.90,111.88 C377.40,117.46 376.13,117.55 370.71,112.35 C364.24,106.14 361.76,104.60 354.99,102.59 C339.21,97.90 320.45,103.16 309.28,115.39 C304.19,120.97 299.00,130.17 299.00,133.61 C299.00,134.76 298.27,137.15 297.38,138.93 C296.14,141.43 295.86,144.29 296.18,151.48 C296.40,156.60 297.06,161.40 297.65,162.15 C298.24,162.89 299.01,165.01 299.36,166.87 C300.72,174.03 309.92,185.97 318.32,191.48 C319.78,192.43 323.57,194.31 326.74,195.65 C331.88,197.82 333.63,198.04 343.00,197.71 C352.07,197.38 354.24,196.96 358.92,194.57 ZM 266.76 157.75 L 267.02 119.00 L 279.01 119.00 L 291.00 119.00 L 291.00 111.00 L 291.00 103.00 L 279.25 103.25 L 267.50 103.50 L 267.57 96.91 C267.70,85.35 272.71,80.19 284.74,79.23 L 291.08 78.72 L 290.79 71.11 L 290.50 63.50 L 284.16 63.80 C276.36,64.16 268.01,67.18 263.24,71.35 C258.56,75.45 254.00,82.70 254.00,86.03 C254.00,87.48 253.66,89.00 253.25,89.40 C252.84,89.80 252.04,93.14 251.47,96.81 L 250.44 103.50 L 243.72 103.19 L 237.00 102.88 L 237.00 110.94 L 237.00 119.00 L 244.00 119.00 L 251.00 119.00 L 251.00 157.33 C251.00,178.42 251.32,195.98 251.71,196.37 C252.09,196.76 255.58,196.95 259.46,196.79 L 266.50 196.50 L 266.76 157.75 ZM 534.01 167.00 C534.57,134.55 534.70,133.83 541.11,126.53 C544.87,122.25 548.90,120.22 557.00,118.56 L 562.50 117.42 L 562.79 109.71 L 563.08 102.00 L 559.55 102.00 C553.62,102.00 546.22,105.51 540.16,111.19 L 534.50 116.50 L 534.20 109.71 L 533.91 102.91 L 526.70 103.21 L 519.50 103.50 L 519.24 149.00 C519.10,174.02 519.20,195.08 519.48,195.80 C519.83,196.72 521.90,197.01 526.74,196.80 L 533.50 196.50 L 534.01 167.00 ZM 591.76 150.25 L 591.50 103.50 L 587.08 103.18 C584.65,103.01 581.61,103.13 580.33,103.45 L 578.00 104.04 L 578.00 149.85 C578.00,175.05 578.30,195.97 578.67,196.33 C579.03,196.70 582.19,197.00 585.68,197.00 L 592.02 197.00 L 591.76 150.25 ZM 54.50 147.10 C62.28,143.50 66.00,137.60 66.00,128.87 C66.00,123.32 65.02,120.86 61.13,116.67 C53.90,108.88 42.61,109.21 34.61,117.45 C26.28,126.03 29.47,142.13 40.49,147.13 C45.58,149.45 49.46,149.44 54.50,147.10 ZM 120.51 147.14 C125.68,144.79 130.72,139.01 131.57,134.46 C134.43,119.23 122.00,107.29 108.60,112.41 C99.44,115.91 95.57,121.87 96.18,131.54 C96.49,136.41 97.18,138.55 99.34,141.38 C104.76,148.48 112.76,150.66 120.51,147.14 ZM 184.06 137.97 C187.01,136.39 189.23,131.32 188.47,127.88 C186.88,120.63 178.33,118.45 173.59,124.08 C170.15,128.17 170.18,132.54 173.69,136.20 C176.53,139.16 180.55,139.85 184.06,137.97 ZM 590.89 82.10 C597.00,76.39 593.53,66.48 585.50,66.70 C577.20,66.94 573.18,77.31 579.33,82.61 C583.10,85.85 587.06,85.68 590.89,82.10 ZM 58.37 78.53 C68.39,70.89 68.61,54.84 58.80,47.85 C54.22,44.60 43.82,44.07 39.37,46.86 C33.42,50.59 30.59,55.54 30.19,62.89 C29.85,68.97 30.07,69.84 32.89,73.72 C37.24,79.68 42.13,82.10 49.05,81.71 C53.32,81.47 55.48,80.74 58.37,78.53 ZM 120.28 80.62 C124.20,78.94 129.50,73.50 130.94,69.68 C132.72,64.96 132.19,57.89 129.71,53.52 C125.50,46.09 115.07,42.85 106.64,46.38 C103.24,47.80 96.74,54.76 97.56,56.10 C97.82,56.52 97.58,57.14 97.02,57.49 C95.29,58.56 95.85,68.24 97.85,72.02 C98.87,73.93 101.61,76.96 103.93,78.75 C108.69,82.41 114.54,83.08 120.28,80.62 ZM 186.80 80.59 C190.49,78.65 195.65,73.10 196.94,69.68 C199.94,61.72 196.43,51.25 189.42,47.27 C183.38,43.83 175.64,44.14 169.72,48.06 C167.18,49.75 164.81,52.11 164.47,53.31 C164.12,54.52 163.15,57.02 162.31,58.88 C160.70,62.45 161.11,69.20 162.98,69.83 C163.54,70.01 164.00,70.94 164.00,71.89 C164.00,73.97 169.54,79.51 173.00,80.88 C176.70,82.35 183.72,82.20 186.80,80.59 ZM 448.62 182.43 C438.52,179.19 432.74,173.88 427.74,163.23 C425.08,157.56 424.83,156.18 425.17,148.73 C425.78,135.12 431.24,126.07 442.37,120.21 C446.90,117.83 448.62,117.51 457.00,117.50 C465.15,117.50 467.28,117.87 472.00,120.09 C479.72,123.73 484.63,128.78 488.20,136.74 C491.43,143.96 491.19,158.59 487.72,165.54 C480.74,179.49 463.17,187.09 448.62,182.43 ZM 333.27 181.11 C324.22,177.74 319.17,173.10 314.24,163.61 C311.96,159.22 311.58,157.24 311.54,149.50 C311.51,141.84 311.89,139.67 314.10,134.95 C319.25,123.97 327.67,117.72 339.04,116.41 C356.78,114.37 372.82,125.41 376.06,141.88 C380.31,163.48 366.76,181.60 345.55,182.69 C340.33,182.96 337.14,182.55 333.27,181.11 Z" fill="rgb(254,254,254)"/>
</g>
</svg>